<?xml version="1.0" encoding="UTF-8" standalone="no"?>
<svg
   xmlns:dc="http://purl.org/dc/elements/1.1/"
   xmlns:cc="http://creativecommons.org/ns#"
   xmlns:rdf="http://www.w3.org/1999/02/22-rdf-syntax-ns#"
   xmlns:svg="http://www.w3.org/2000/svg"
   xmlns="http://www.w3.org/2000/svg"
   xmlns:sodipodi="http://sodipodi.sourceforge.net/DTD/sodipodi-0.dtd"
   xmlns:inkscape="http://www.inkscape.org/namespaces/inkscape"
   height="512pt"
   viewBox="0 0 512 512"
   width="512pt"
   version="1.1"
   id="svg6"
   sodipodi:docname="closedeye.svg"
   inkscape:version="1.0.2 (e86c870879, 2021-01-15, custom)"
   inkscape:export-filename="C:\Users\lmf1\OneDrive - National Institute of Standards and Technology (NIST)\NIST\data\shopbot\software\pythonGUI\icons\closedeye.png"
   inkscape:export-xdpi="400"
   inkscape:export-ydpi="400">
  <metadata
     id="metadata12">
    <rdf:RDF>
      <cc:Work
         rdf:about="">
        <dc:format>image/svg+xml</dc:format>
        <dc:type
           rdf:resource="http://purl.org/dc/dcmitype/StillImage" />
      </cc:Work>
    </rdf:RDF>
  </metadata>
  <defs
     id="defs10" />
  <sodipodi:namedview
     pagecolor="#ffffff"
     bordercolor="#666666"
     borderopacity="1"
     objecttolerance="10"
     gridtolerance="10"
     guidetolerance="10"
     inkscape:pageopacity="0"
     inkscape:pageshadow="2"
     inkscape:window-width="1606"
     inkscape:window-height="1228"
     id="namedview8"
     showgrid="false"
     inkscape:zoom="1.0440874"
     inkscape:cx="268.78974"
     inkscape:cy="267.09832"
     inkscape:window-x="1226"
     inkscape:window-y="209"
     inkscape:window-maximized="0"
     inkscape:current-layer="svg6"
     inkscape:document-rotation="0" />
  <path
     d="m436.8125 75.1875c-48.484375-48.484375-112.699219-75.1875-180.8125-75.1875s-132.328125 26.703125-180.8125 75.1875-75.1875 112.699219-75.1875 180.8125 26.703125 132.328125 75.1875 180.8125 112.699219 75.1875 180.8125 75.1875 132.328125-26.703125 180.8125-75.1875 75.1875-112.699219 75.1875-180.8125-26.703125-132.328125-75.1875-180.8125zm-406.8125 180.8125c0-124.617188 101.382812-226 226-226 56.921875 0 108.988281 21.160156 148.769531 56.019531l-59.453125 59.453125c-29.808594-16.109375-60.085937-24.472656-89.316406-24.472656-43.179688 0-88.824219 18.242188-132.007812 52.75-33.683594 26.921875-54.195313 54.1875-55.054688 55.335938l-20.078125 26.914062 20.082031 26.917969c.855469 1.144531 21.367188 28.410156 55.050782 55.332031 5.414062 4.324219 10.867187 8.386719 16.347656 12.195312l-54.320313 54.320313c-34.859375-39.777344-56.019531-91.84375-56.019531-148.765625zm245.382812-40.59375c-5.871093-2.820312-12.445312-4.40625-19.382812-4.40625-24.8125 0-45 20.1875-45 45 0 6.9375 1.585938 13.511719 4.40625 19.382812l-21.949219 21.945313c-7.863281-11.855469-12.457031-26.0625-12.457031-41.328125 0-41.355469 33.644531-75 75-75 15.265625 0 29.472656 4.59375 41.328125 12.457031zm-19.382812 266.59375c-56.921875 0-108.988281-21.160156-148.769531-56.019531l318.75-318.746094c34.859375 39.777344 56.019531 91.84375 56.019531 148.765625 0 124.617188-101.382812 226-226 226zm0 0"
     id="path2"
     style="fill:#000000;fill-opacity:1" />
  <path
     d="m442.058594 229.082031c-2-2.679687-19.039063-25.074219-46.699219-48.800781l-65.121094 65.121094c.492188 3.464844.761719 7 .761719 10.597656 0 41.355469-33.644531 75-75 75-3.597656 0-7.132812-.269531-10.597656-.761719l-49.554688 49.550781c20.253906 7.402344 40.460938 11.210938 60.152344 11.210938 43.195312 0 88.6875-18.253906 131.554688-52.785156 32.25-25.984375 52.320312-52.375 54.507812-55.300782l20.078125-26.914062zm0 0"
     id="path4"
     style="fill:#000000;fill-opacity:1" />
</svg>
