<?xml version="1.0" encoding="UTF-8" standalone="no"?>
<svg
   xmlns:dc="http://purl.org/dc/elements/1.1/"
   xmlns:cc="http://creativecommons.org/ns#"
   xmlns:rdf="http://www.w3.org/1999/02/22-rdf-syntax-ns#"
   xmlns:svg="http://www.w3.org/2000/svg"
   xmlns="http://www.w3.org/2000/svg"
   xmlns:sodipodi="http://sodipodi.sourceforge.net/DTD/sodipodi-0.dtd"
   xmlns:inkscape="http://www.inkscape.org/namespaces/inkscape"
   width="82.020836mm"
   height="81.315277mm"
   viewBox="0 0 82.020836 81.315277"
   version="1.1"
   id="svg8"
   inkscape:version="1.0.2 (e86c870879, 2021-01-15, custom)"
   sodipodi:docname="save.svg"
   inkscape:export-filename="C:\Users\lmf1\OneDrive - National Institute of Standards and Technology (NIST)\NIST\data\shopbot\software\pythonGUI\icons\save.png"
   inkscape:export-xdpi="400"
   inkscape:export-ydpi="400">
  <defs
     id="defs2" />
  <sodipodi:namedview
     id="base"
     pagecolor="#ffffff"
     bordercolor="#666666"
     borderopacity="1.0"
     inkscape:pageopacity="0.0"
     inkscape:pageshadow="2"
     inkscape:zoom="0.98994949"
     inkscape:cx="62.541349"
     inkscape:cy="137.6644"
     inkscape:document-units="mm"
     inkscape:current-layer="layer1"
     inkscape:document-rotation="0"
     showgrid="false"
     inkscape:window-width="1624"
     inkscape:window-height="1228"
     inkscape:window-x="1509"
     inkscape:window-y="494"
     inkscape:window-maximized="0" />
  <metadata
     id="metadata5">
    <rdf:RDF>
      <cc:Work
         rdf:about="">
        <dc:format>image/svg+xml</dc:format>
        <dc:type
           rdf:resource="http://purl.org/dc/dcmitype/StillImage" />
        <dc:title />
      </cc:Work>
    </rdf:RDF>
  </metadata>
  <g
     inkscape:label="Layer 1"
     inkscape:groupmode="layer"
     id="layer1"
     transform="translate(-101.10863,-89.366173)">
    <path
       style="fill:#ffffff;stroke-width:0.176389;fill-opacity:1"
       d="m 108.74002,169.17481 c -3.02221,-0.81392 -5.51519,-3.3255 -6.30297,-6.34999 -0.23772,-0.91268 -0.27009,-4.87475 -0.27009,-33.06559 0,-34.927085 -0.0576,-32.896943 0.99135,-34.966843 0.62977,-1.242809 2.33198,-2.975034 3.57397,-3.637008 2.15312,-1.147602 0.37224,-1.08365 30.17692,-1.08365 h 27.08339 l 8.77469,8.776002 8.77469,8.775999 v 27.08208 c 0,29.52056 0.0516,27.96219 -0.99344,30.0244 -0.60021,1.18444 -2.53864,3.12287 -3.72308,3.72308 -2.0761,1.05204 -0.0218,0.99449 -35.05214,0.98183 -27.04994,-0.01 -32.25534,-0.0508 -33.03329,-0.26031 z m 37.18395,-9.24787 c 2.04003,-0.68348 3.39585,-1.49633 4.96531,-2.97689 1.6203,-1.52851 2.78002,-3.33484 3.50223,-5.45493 0.54778,-1.60807 0.58453,-1.86521 0.58543,-4.097 8.8e-4,-2.22768 -0.036,-2.48871 -0.57174,-4.04739 -0.71339,-2.0754 -1.52482,-3.42494 -2.9988,-4.98743 -1.52851,-1.6203 -3.33484,-2.78002 -5.45493,-3.50223 -1.60902,-0.5481 -1.8639,-0.58446 -4.09701,-0.58446 -2.23311,0 -2.48799,0.0364 -4.097,0.58446 -2.12009,0.72221 -3.92642,1.88193 -5.45493,3.50223 -1.47398,1.56249 -2.28541,2.91203 -2.9988,4.98743 -0.53545,1.55777 -0.5727,1.82102 -0.5727,4.04739 0,2.22636 0.0373,2.48962 0.5727,4.04738 0.71239,2.07251 1.52471,3.42482 2.9908,4.97895 1.43172,1.5177 3.14447,2.66373 4.98469,3.33532 1.94944,0.71146 2.93246,0.86184 5.12653,0.78425 1.51188,-0.0535 2.19203,-0.17277 3.51822,-0.61708 z m 9.15966,-52.21632 v -8.819447 h -22.04861 -22.04861 v 8.819447 8.81944 h 22.04861 22.04861 z"
       id="path847" />
  </g>
</svg>
