<?xml version="1.0" encoding="UTF-8" standalone="no"?>
<svg
   xmlns:dc="http://purl.org/dc/elements/1.1/"
   xmlns:cc="http://creativecommons.org/ns#"
   xmlns:rdf="http://www.w3.org/1999/02/22-rdf-syntax-ns#"
   xmlns:svg="http://www.w3.org/2000/svg"
   xmlns="http://www.w3.org/2000/svg"
   xmlns:sodipodi="http://sodipodi.sourceforge.net/DTD/sodipodi-0.dtd"
   xmlns:inkscape="http://www.inkscape.org/namespaces/inkscape"
   width="864"
   height="864"
   viewBox="0 0 228.59999 228.60001"
   version="1.1"
   id="svg8"
   sodipodi:docname="sfcIcon.svg"
   inkscape:export-filename="C:\Users\lmf1\OneDrive - National Institute of Standards and Technology (NIST)\NIST\data\shopbot\python GUI\sfcIcon.png"
   inkscape:export-xdpi="10.666667"
   inkscape:export-ydpi="10.666667"
   inkscape:version="1.0.1 (3bc2e813f5, 2020-09-07)">
  <defs
     id="defs2">
    <clipPath
       clipPathUnits="userSpaceOnUse"
       id="clipPath921">
      <rect
         style="fill:#6b6b6b;stroke:#000000;stroke-width:0.264583"
         id="rect923"
         width="219.22618"
         height="182.5625"
         x="75.028275"
         y="57.641369" />
    </clipPath>
  </defs>
  <sodipodi:namedview
     id="base"
     pagecolor="#ffffff"
     bordercolor="#666666"
     borderopacity="1.0"
     inkscape:pageopacity="0.0"
     inkscape:pageshadow="2"
     inkscape:zoom="0.0875"
     inkscape:cx="1050.8607"
     inkscape:cy="-140.95638"
     inkscape:document-units="mm"
     inkscape:current-layer="layer1"
     inkscape:document-rotation="0"
     showgrid="false"
     units="px"
     inkscape:window-width="3840"
     inkscape:window-height="2066"
     inkscape:window-x="-11"
     inkscape:window-y="-11"
     inkscape:window-maximized="1" />
  <metadata
     id="metadata5">
    <rdf:RDF>
      <cc:Work
         rdf:about="">
        <dc:format>image/svg+xml</dc:format>
        <dc:type
           rdf:resource="http://purl.org/dc/dcmitype/StillImage" />
        <dc:title></dc:title>
      </cc:Work>
    </rdf:RDF>
  </metadata>
  <g
     inkscape:label="Layer 1"
     inkscape:groupmode="layer"
     id="layer1">
    <path
       style="fill:#fbdb7e;fill-opacity:1;stroke-width:0.212623"
       d="M 11.97414,138.7493 C 6.9536124,137.44514 3.3955272,133.90581 1.8334733,128.66211 1.4744268,127.45686 1.4500258,124.83116 1.3916574,81.140804 1.3225424,29.376998 1.214768,33.13882 2.8647189,29.709088 c 1.0658592,-2.21561 3.5846915,-4.865537 5.6489103,-5.9429 2.6065328,-1.360429 3.4869898,-1.568517 7.1132498,-1.681179 l 3.333826,-0.103534 0.06813,-5.768977 c 0.07333,-6.205741 0.110838,-6.4275017 1.273443,-7.5129541 1.142028,-1.0663084 1.605336,-1.1264214 8.681709,-1.1264214 7.076456,0 7.540665,0.06024 8.681018,1.1264214 0.961303,0.8987654 0.989129,1.0828694 1.099659,7.2722041 l 0.106344,5.95345 3.6146,0.05534 3.614597,0.05534 4.882452,-7.07192 c 3.975243,-5.7579064 5.241269,-7.4274985 6.813592,-8.9855436 2.785687,-2.7603826 5.640624,-4.2853393 9.524782,-5.08763597 1.383121,-0.2856919 3.822908,-0.3342606 16.790758,-0.3342606 9.663605,0 15.630565,0.081141 16.434121,0.2234618 3.95907,0.70123717 7.5805,2.60973257 10.37814,5.46929377 0.68718,0.7023894 3.58822,4.5168056 6.44675,8.4764906 l 5.19735,7.199404 16.41025,0.106343 16.41027,0.106344 1.74661,0.591577 c 5.01784,1.699567 8.58675,5.953172 9.40472,11.209024 0.18502,1.188849 0.23158,13.336501 0.18294,47.733955 l -0.0651,46.139239 -0.62877,1.8022 c -1.23753,3.54707 -3.78121,6.47757 -7.01157,8.07783 -3.26294,1.61638 3.20522,1.48885 -75.070206,1.47995 -69.054198,-0.008 -70.408359,-0.0159 -71.973026,-0.42225 z m 75.587631,-19.56058 c 5.43419,-0.46832 10.377924,-1.81741 15.174789,-4.14104 4.8908,-2.36913 8.5093,-4.97919 12.2743,-8.85353 C 131.7402,88.978945 131.19754,61.489697 113.80056,44.883668 103.59137,35.138643 89.360201,31.072677 75.229606,33.863599 70.528106,34.792197 64.3474,37.389656 60.154728,40.198854 49.360055,47.431566 42.410113,58.933877 41.08406,71.761217 c -0.309274,2.991766 -0.144319,8.782473 0.324744,11.3995 0.825402,4.60526 1.945669,8.056989 3.933383,12.11954 2.251841,4.602356 4.962215,8.260433 8.981431,12.121863 8.877542,8.52901 21.030647,12.83862 33.238153,11.7866 z m -8.256575,-12.4412 C 69.392404,105.2055 60.850309,98.934099 56.314649,89.868406 52.740211,82.723902 52.126859,74.267828 54.6215,66.525087 c 0.774902,-2.405089 2.614485,-6.047515 4.161998,-8.240891 0.742424,-1.052245 2.306651,-2.873958 3.476083,-4.048223 4.242579,-4.260122 9.532591,-7.10152 15.694076,-8.42965 3.120361,-0.672605 9.079288,-0.672605 12.199656,0 6.143156,1.324182 11.396317,4.149749 15.690187,8.439454 3.6027,3.59919 5.96499,7.404065 7.52715,12.123717 1.13604,3.432259 1.56566,6.120338 1.56222,9.774652 -0.003,3.640923 -0.43625,6.372567 -1.53667,9.698244 -3.69618,11.170548 -13.17742,19.17644 -24.771314,20.91676 -2.587341,0.38839 -6.78188,0.38315 -9.31969,-0.0113 z M 152.22317,38.301972 c 3.97998,-1.181922 5.21476,-6.270129 2.25888,-9.308434 -0.87991,-0.904451 -2.62736,-1.646466 -3.87741,-1.646466 -2.03398,0 -4.43057,1.611782 -5.22549,3.514297 -0.45411,1.086848 -0.38924,3.322814 0.12827,4.423906 0.58361,1.241553 1.82596,2.407278 3.09257,2.901828 1.27551,0.498037 2.23092,0.528322 3.62315,0.114913 z"
       id="path925"
       sodipodi:nodetypes="cssssscssssscccssssssscccssscsscccsssssssssssssssssssscsssscsssssc" />
    <path
       style="fill:#3b1e6f;fill-opacity:1;stroke-width:2.38175"
       d="m 47.422601,222.99913 c -3.775523,-7.05459 -2.976,-11.43767 2.827875,-15.50287 4.511242,-3.15975 16.071374,-3.70767 78.228504,-3.70767 69.56845,0 73.13126,-0.21668 77.18618,-4.69744 5.28522,-5.84012 4.02144,-27.87572 -1.84469,-32.16515 -2.04479,-1.49518 -17.89211,-4.04605 -35.2163,-5.66863 -34.43457,-3.22514 -36.94748,-4.02109 -45.76014,-14.49434 -8.79604,-10.4535 -10.39155,-23.95943 -4.31361,-36.51478 8.07719,-16.685204 13.23198,-18.401734 55.26103,-18.401734 33.82804,0 36.95938,0.378954 44.28138,5.358927 13.16404,8.953337 16.06903,27.100777 5.26391,32.883487 -6.5187,3.48871 -12.15258,1.10442 -16.81538,-7.11637 -3.95572,-6.97418 -4.04045,-6.99631 -29.64125,-7.74681 -27.37614,-0.80254 -35.02556,1.10965 -36.17271,9.04237 -1.2132,8.38947 5.58169,10.94055 38.21267,14.34657 37.75363,3.94071 37.26197,3.80232 46.03493,12.95928 6.842,7.14152 6.96914,7.75267 6.96914,33.50006 v 26.22583 c -0.58024,4.0528 1.23073,8.10555 -5.29187,12.15834 -3.64104,2.96075 -7.79219,4.39114 -12.50127,4.14786 h -82.12143 c -78.753452,0 -82.222545,-0.18882 -84.586969,-4.60693 z"
       id="path931"
       sodipodi:nodetypes="ssssssssssssssssscccss" />
    <path
       style="fill:#007e97;fill-opacity:1;stroke-width:1.93651"
       d="m 91.650429,227.74968 c -1.476238,-0.9392 -2.481387,-10.33062 -2.904757,-27.14008 l -0.647378,-25.70393 6.96345,-1.87217 c 11.101776,-2.98474 22.731546,-12.75802 31.439706,-26.4209 l 8.07298,-12.66627 0.52001,46.06056 c 0.40139,35.55527 -0.0404,46.41616 -1.9365,47.61971 -3.08607,1.95877 -38.457174,2.06364 -41.507511,0.12321 z M 53.241203,173.05524 c -16.635464,-3.31447 -24.047714,-7.882 -38.789084,-23.90238 -7.9556538,-8.6459 -14.46482264,-16.3835 -14.46482264,-17.19468 0,-2.18632 21.59179164,-1.78704 32.74818464,0.60556 13.00106,2.78821 22.253094,9.50876 37.791582,27.45128 l 12.997106,15.00791 -11.268476,-0.21217 c -6.197656,-0.11674 -14.754178,-0.90668 -19.01449,-1.75552 z M 183.95533,111.19097 c -8.9347,-3.08192 -13.21243,-6.42587 -26.54969,-20.754226 -8.7444,-9.394192 -15.93368,-17.733932 -15.97616,-18.532737 -0.2509,-4.716502 36.31211,1.089904 48.72152,7.737236 7.67189,4.109586 34.47095,30.721267 34.47095,34.229927 0,2.78933 -30.6701,0.76795 -40.66662,-2.6802 z m -95.573498,0.53356 c -1.950278,-1.9503 -1.411861,-88.370574 0.570089,-91.502878 2.254729,-3.563405 33.548759,-5.274707 41.321789,-2.259664 l 5.38178,2.087514 -0.54054,25.49315 -0.54052,25.493153 -7.54063,2.6078 c -11.16258,3.860392 -22.54974,14.154309 -30.421825,27.501145 -3.838093,6.50736 -7.541647,11.26826 -8.230143,10.57978 z"
       id="path929"
       sodipodi:nodetypes="cscsscssccssssscsssscsssssscccsss" />
  </g>
</svg>
